<svg width="58" height="48" viewBox="0 0 58 48" fill="none" xmlns="http://www.w3.org/2000/svg">
<path d="M56.6406 12.4987C56.6406 10.7583 55.8052 9.08907 54.3181 7.85836C52.831 6.62765 50.814 5.93625 48.711 5.93625C46.6079 5.93625 44.5909 6.62765 43.1038 7.85836C41.6167 9.08907 40.7813 10.7583 40.7813 12.4987C40.7813 12.5212 40.7813 12.54 40.7813 12.5625H16.7656C16.2965 12.5627 15.8332 12.6482 15.4085 12.8131C14.9837 12.978 14.608 13.2181 14.308 13.5166C14.0079 13.815 13.7908 14.1644 13.6721 14.54C13.5533 14.9156 13.5359 15.3082 13.6209 15.69L16.6478 29.1637C16.8286 29.9762 17.3471 30.7107 18.1134 31.2401C18.8797 31.7695 19.8456 32.0604 20.8438 32.0625H49.0372C49.7559 32.0576 50.4513 31.8509 51.0094 31.4762C51.5676 31.1015 51.9554 30.581 52.1094 30L55.9111 15.75C55.9699 15.5171 55.9897 15.2786 55.97 15.0412C56.4128 14.2438 56.6416 13.3764 56.6406 12.4987ZM48.711 6.68625C50.5729 6.68823 52.358 7.30126 53.6746 8.39088C54.9913 9.48051 55.732 10.9578 55.7344 12.4987C55.7344 15.825 52.0278 18.3112 48.711 18.3112C46.863 18.2723 45.1038 17.6474 43.7967 16.5657C42.4896 15.484 41.7346 14.0281 41.6875 12.4987C41.6899 10.9578 42.4307 9.48051 43.7473 8.39088C45.0639 7.30126 46.849 6.68823 48.711 6.68625ZM47.5781 18.9825V20.0625H39.4219V13.3125H40.8538C41.1154 14.7215 41.9053 16.0269 43.1118 17.0443C44.3184 18.0617 45.8808 18.7397 47.5781 18.9825ZM51.8375 27.5625H48.4844V20.8125H53.6319L51.8375 27.5625ZM47.5781 27.5625H39.4219V20.8125H47.5781V27.5625ZM21.2969 28.3125H29.4531V31.3125H21.2969V28.3125ZM15.6917 20.8125H20.3906V27.5625H17.2188L15.6917 20.8125ZM21.2969 20.8125H29.4531V27.5625H21.2969V20.8125ZM29.4531 20.0625H21.2969V13.3125H29.4531V20.0625ZM30.3594 13.3125H38.5156V20.0625H30.3594V13.3125ZM30.3594 28.3125H38.5156V31.3125H30.3594V28.3125ZM30.3594 27.5625V20.8125H38.5156V27.5625H30.3594ZM15.003 13.9987C15.2166 13.7831 15.4857 13.6096 15.7906 13.4908C16.0956 13.3721 16.4287 13.3112 16.7656 13.3125H20.3906V20.0625H15.5241L14.5 15.555C14.4388 15.281 14.4522 14.9991 14.5392 14.7299C14.6263 14.4607 14.7847 14.2109 15.003 13.9987ZM17.5405 29.0287L17.3819 28.3125H20.3906V31.2825C19.6891 31.2026 19.0357 30.9418 18.5233 30.5373C18.0109 30.1328 17.6654 29.6049 17.536 29.0287H17.5405ZM39.4219 31.3125V28.3125H47.5781V31.3125H39.4219ZM51.2258 29.8537C51.1124 30.2659 50.8341 30.6342 50.436 30.899C50.0379 31.1638 49.5434 31.3095 49.0327 31.3125H48.4844V28.3125H51.6563L51.2258 29.8537ZM53.8313 20.0625H48.4844V19.0538H48.711C49.8704 19.0174 51.0076 18.7792 52.0484 18.3547C53.0891 17.9302 54.01 17.3289 54.7511 16.59L53.8313 20.0625Z" fill="white"/>
<path d="M50.75 32.8125H20.1323C19.1164 32.8113 18.1323 32.5188 17.3475 31.9849C16.5627 31.4509 16.0256 30.7084 15.8277 29.8838L9.30266 2.45625C9.21754 2.03042 8.95183 1.64363 8.55322 1.36529C8.15461 1.08695 7.64919 0.935281 7.12766 0.937501H3.17188C2.69117 0.937501 2.23015 1.09554 1.89024 1.37684C1.55033 1.65815 1.35938 2.03968 1.35938 2.4375C1.35938 2.83533 1.55033 3.21686 1.89024 3.49816C2.23015 3.77947 2.69117 3.9375 3.17188 3.9375H5.95406L12.393 31.02C12.7166 32.3692 13.595 33.584 14.8788 34.4578C16.1625 35.3315 17.7724 35.8102 19.4345 35.8125H50.75C51.2307 35.8125 51.6917 35.6545 52.0316 35.3732C52.3715 35.0919 52.5625 34.7103 52.5625 34.3125C52.5625 33.9147 52.3715 33.5331 52.0316 33.2518C51.6917 32.9705 51.2307 32.8125 50.75 32.8125ZM50.75 35.0625H19.4345C17.982 35.0604 16.5751 34.6419 15.4533 33.8782C14.3314 33.1146 13.5639 32.0529 13.2811 30.8738L6.76969 3.49875C6.74944 3.41208 6.69289 3.3341 6.61001 3.27854C6.52712 3.22298 6.42321 3.1934 6.31656 3.195H3.17188C2.93152 3.195 2.70101 3.11598 2.53106 2.97533C2.3611 2.83468 2.26562 2.64391 2.26562 2.445C2.26562 2.24609 2.3611 2.05532 2.53106 1.91467C2.70101 1.77402 2.93152 1.695 3.17188 1.695H7.12766C7.43568 1.69539 7.73346 1.78656 7.96762 1.95218C8.20178 2.11779 8.357 2.34701 8.40547 2.59875L14.9531 30.03C15.1915 31.0229 15.8374 31.917 16.7813 32.5609C17.7252 33.2047 18.9092 33.5585 20.1323 33.5625H50.75C50.9904 33.5625 51.2209 33.6415 51.3908 33.7822C51.5608 33.9228 51.6562 34.1136 51.6562 34.3125C51.6562 34.5114 51.5608 34.7022 51.3908 34.8428C51.2209 34.9835 50.9904 35.0625 50.75 35.0625Z" fill="white"/>
<path d="M25.1484 40.6875C24.7451 40.6875 24.3509 40.7865 24.0156 40.9719C23.6803 41.1573 23.4189 41.4209 23.2646 41.7292C23.1103 42.0376 23.0699 42.3769 23.1486 42.7042C23.2272 43.0316 23.4214 43.3322 23.7066 43.5682C23.9918 43.8042 24.3551 43.965 24.7506 44.0301C25.1462 44.0952 25.5562 44.0618 25.9288 43.934C26.3013 43.8063 26.6198 43.59 26.8439 43.3125C27.0679 43.035 27.1875 42.7088 27.1875 42.375C27.1875 41.9274 26.9727 41.4982 26.5903 41.1818C26.2079 40.8653 25.6892 40.6875 25.1484 40.6875ZM25.1484 43.3125C24.9244 43.3125 24.7054 43.2575 24.5191 43.1545C24.3328 43.0515 24.1876 42.9051 24.1019 42.7338C24.0161 42.5625 23.9937 42.374 24.0374 42.1921C24.0811 42.0102 24.189 41.8432 24.3474 41.7121C24.5058 41.581 24.7077 41.4917 24.9274 41.4555C25.1472 41.4193 25.375 41.4379 25.5819 41.5089C25.7889 41.5798 25.9659 41.7 26.0903 41.8542C26.2148 42.0083 26.2813 42.1896 26.2813 42.375C26.2813 42.6236 26.1619 42.8621 25.9495 43.0379C25.737 43.2137 25.4489 43.3125 25.1484 43.3125Z" fill="white"/>
<path d="M44.6328 40.6875C44.2295 40.6875 43.8353 40.7865 43.5 40.9719C43.1646 41.1573 42.9033 41.4209 42.749 41.7292C42.5946 42.0376 42.5543 42.3769 42.6329 42.7042C42.7116 43.0316 42.9058 43.3322 43.191 43.5682C43.4761 43.8042 43.8395 43.965 44.235 44.0301C44.6306 44.0952 45.0405 44.0618 45.4131 43.934C45.7857 43.8063 46.1042 43.59 46.3282 43.3125C46.5523 43.035 46.6719 42.7088 46.6719 42.375C46.6719 41.9274 46.457 41.4982 46.0747 41.1818C45.6923 40.8653 45.1736 40.6875 44.6328 40.6875ZM44.6328 43.3125C44.4088 43.3125 44.1897 43.2575 44.0035 43.1545C43.8172 43.0515 43.672 42.9051 43.5862 42.7338C43.5005 42.5625 43.4781 42.374 43.5218 42.1921C43.5655 42.0102 43.6734 41.8432 43.8318 41.7121C43.9902 41.581 44.1921 41.4917 44.4118 41.4555C44.6316 41.4193 44.8593 41.4379 45.0663 41.5089C45.2733 41.5798 45.4502 41.7 45.5747 41.8542C45.6992 42.0083 45.7656 42.1896 45.7656 42.375C45.7656 42.6236 45.6463 42.8621 45.4338 43.0379C45.2214 43.2137 44.9333 43.3125 44.6328 43.3125Z" fill="white"/>
<path d="M25.1484 37.6875C24.0282 37.6875 22.9331 37.9624 22.0017 38.4775C21.0702 38.9926 20.3442 39.7246 19.9155 40.5812C19.4868 41.4377 19.3747 42.3802 19.5932 43.2895C19.8118 44.1988 20.3512 45.034 21.1433 45.6896C21.9355 46.3451 22.9447 46.7916 24.0434 46.9724C25.1422 47.1533 26.281 47.0605 27.316 46.7057C28.351 46.3509 29.2356 45.7501 29.8579 44.9792C30.4803 44.2084 30.8125 43.3021 30.8125 42.375C30.8113 41.1321 30.2142 39.9404 29.1522 39.0615C28.0903 38.1827 26.6503 37.6885 25.1484 37.6875ZM25.1484 46.3125C24.2074 46.3125 23.2876 46.0816 22.5051 45.6489C21.7227 45.2163 21.1129 44.6013 20.7528 43.8818C20.3927 43.1623 20.2985 42.3706 20.482 41.6068C20.6656 40.843 21.1188 40.1414 21.7842 39.5908C22.4495 39.0401 23.2973 38.6651 24.2202 38.5132C25.1432 38.3612 26.0998 38.4392 26.9692 38.7372C27.8386 39.0352 28.5816 39.5399 29.1044 40.1874C29.6272 40.835 29.9063 41.5962 29.9063 42.375C29.9051 43.419 29.4034 44.4199 28.5114 45.1581C27.6194 45.8963 26.4099 46.3115 25.1484 46.3125Z" fill="white"/>
<path d="M44.6328 37.6875C43.5126 37.6875 42.4175 37.9624 41.486 38.4775C40.5546 38.9926 39.8286 39.7246 39.3999 40.5812C38.9712 41.4377 38.859 42.3802 39.0776 43.2895C39.2961 44.1988 39.8356 45.034 40.6277 45.6896C41.4199 46.3451 42.4291 46.7916 43.5278 46.9724C44.6265 47.1533 45.7654 47.0605 46.8004 46.7057C47.8353 46.3509 48.7199 45.7501 49.3423 44.9792C49.9647 44.2084 50.2969 43.3021 50.2969 42.375C50.2957 41.1321 49.6985 39.9404 48.6366 39.0615C47.5746 38.1827 46.1347 37.6885 44.6328 37.6875ZM44.6328 46.3125C43.6918 46.3125 42.7719 46.0816 41.9895 45.6489C41.2071 45.2163 40.5973 44.6013 40.2372 43.8818C39.8771 43.1623 39.7828 42.3706 39.9664 41.6068C40.15 40.843 40.6031 40.1414 41.2685 39.5908C41.9339 39.0401 42.7817 38.6651 43.7046 38.5132C44.6275 38.3612 45.5842 38.4392 46.4536 38.7372C47.3229 39.0352 48.066 39.5399 48.5888 40.1874C49.1116 40.835 49.3906 41.5962 49.3906 42.375C49.3894 43.419 48.8878 44.4199 47.9958 45.1581C47.1038 45.8963 45.8943 46.3115 44.6328 46.3125Z" fill="white"/>
<path d="M45.2264 12.8738H48.2578V15.375C48.2578 15.4745 48.3056 15.5698 48.3905 15.6402C48.4755 15.7105 48.5908 15.75 48.7109 15.75C48.8311 15.75 48.9464 15.7105 49.0314 15.6402C49.1163 15.5698 49.1641 15.4745 49.1641 15.375V12.8738H52.1955C52.3157 12.8738 52.4309 12.8342 52.5159 12.7639C52.6009 12.6936 52.6486 12.5982 52.6486 12.4988C52.6486 12.3993 52.6009 12.3039 52.5159 12.2336C52.4309 12.1633 52.3157 12.1238 52.1955 12.1238H49.1641V9.61875C49.1641 9.5193 49.1163 9.42391 49.0314 9.35359C48.9464 9.28326 48.8311 9.24375 48.7109 9.24375C48.5908 9.24375 48.4755 9.28326 48.3905 9.35359C48.3056 9.42391 48.2578 9.5193 48.2578 9.61875V12.1275H45.2264C45.1062 12.1275 44.991 12.167 44.906 12.2373C44.821 12.3077 44.7733 12.403 44.7733 12.5025C44.7733 12.602 44.821 12.6973 44.906 12.7677C44.991 12.838 45.1062 12.8775 45.2264 12.8775V12.8738Z" fill="white"/>
</svg>
