<svg width="21" height="21" viewBox="0 0 21 21" fill="none" xmlns="http://www.w3.org/2000/svg">
<g clip-path="url(#clip0_4_2)">
<path fill-rule="evenodd" clip-rule="evenodd" d="M15.4412 12.8333H14.4653L14.1194 12.5183C15.6018 10.885 16.3676 8.65667 15.9476 6.28833C15.3671 3.045 12.5012 0.455001 9.04235 0.0583346C3.81706 -0.548332 -0.580586 3.605 0.0617669 8.54C0.481767 11.8067 3.22412 14.5133 6.65824 15.0617C9.16588 15.4583 11.5253 14.735 13.2547 13.335L13.5882 13.6617V14.5833L18.8382 19.5417C19.3447 20.02 20.1724 20.02 20.6788 19.5417C21.1853 19.0633 21.1853 18.2817 20.6788 17.8033L15.4412 12.8333ZM8.02941 12.8333C4.95353 12.8333 2.47059 10.4883 2.47059 7.58333C2.47059 4.67833 4.95353 2.33333 8.02941 2.33333C11.1053 2.33333 13.5882 4.67833 13.5882 7.58333C13.5882 10.4883 11.1053 12.8333 8.02941 12.8333Z" fill="#1D1D1D"/>
</g>
<defs>
<clipPath id="clip0_4_2">
<rect width="21" height="21" fill="white"/>
</clipPath>
</defs>
</svg>
